<?xml version="1.0" encoding="utf-8"?>
<!-- Generator: Adobe Illustrator 24.2.0, SVG Export Plug-In . SVG Version: 6.00 Build 0)  -->
<svg version="1.1" xmlns="http://www.w3.org/2000/svg" xmlns:xlink="http://www.w3.org/1999/xlink" x="0px" y="0px"
	 viewBox="0 0 240 240" style="enable-background:new 0 0 240 240;" xml:space="preserve">
<style type="text/css">
	.st0{fill:url(#SVGID_1_);}
	.st1{fill:#89CAF7;}
	.st2{fill:#FFFFFF;}
	.st3{opacity:0.56;fill:#D2EBFF;}
	.st4{fill:#D2EBFF;}
	.st5{fill:#073A93;}
	.st6{fill:#1858B5;}
	.st7{fill:#489BFF;}
	.st8{opacity:0.45;fill:#063272;}
	.st9{fill:#E6E6E6;}
	.st10{fill:#F49290;}
	.st11{fill:#FFB5B1;}
	.st12{fill:#ACCFE5;}
	.st13{fill:#FFAA45;}
	.st14{fill:#CDDDF9;}
	.st15{fill:#1677D8;}
	.st16{fill:#053272;}
	.st17{fill:#F6BA8E;}
	.st18{fill:#67B8EF;}
	.st19{opacity:0.25;fill:#34648C;}
	.st20{fill:#1D262D;}
</style>
<g id="BACKGROUND">
</g>
<g id="OBJECTS">
	<g>
		<ellipse class="st3" cx="120.06" cy="216.22" rx="109.17" ry="18.68"/>
		<path class="st1" d="M110.16,205.12c-38.29-8.06-67.46-36.39-84.37-81.92C13.74,90.76,12.11,60.74,12.04,59.48L11.39,46.5
			l102.37-36.18L216.12,46.5l-0.66,12.98c-0.06,1.26-1.7,31.28-13.75,63.71c-16.91,45.53-46.09,73.86-84.37,81.92l-3.59,0.76
			L110.16,205.12z"/>
		<path class="st4" d="M194.84,60.5l-81.08-28.66v0l0,0l0,0v0L32.67,60.5c0,0,5.49,108.6,81.08,124.52v0c0,0,0,0,0,0c0,0,0,0,0,0v0
			C189.35,169.1,194.84,60.5,194.84,60.5z"/>
		<g>
			<polygon class="st5" points="113.55,173.98 150.73,168.66 183.42,168.66 212.63,174.38 162.38,199.71 			"/>
			<path class="st5" d="M181.8,200.74c0,0-65.78-36.16-73.54-24.31c-11.21,17.12,5.92,25.74,67,42.08L181.8,200.74z"/>
			<g>
				<path class="st6" d="M199.93,218.8L199.93,218.8c1.63-3.93-0.24-8.44-4.17-10.07l-15.19-6.29l-5.9,14.24l15.19,6.29
					C193.8,224.61,198.3,222.74,199.93,218.8z"/>
				<path class="st7" d="M179.61,204.74l11.49,4.76c2.66,1.1,3.94,4.16,2.84,6.82c-1.1,2.66-4.17,3.93-6.83,2.83l-11.49-4.76
					L179.61,204.74z"/>
				<path class="st8" d="M175.67,214.29l15.19,6.29c3.52,1.46,7.49,0.1,9.45-3.02c-0.1,0.42-0.21,0.84-0.38,1.25
					c-1.63,3.93-6.14,5.8-10.07,4.17l-15.19-6.29L175.67,214.29z"/>
				<path class="st9" d="M180.7,214.52l2.43-5.86c0.12-0.29,0.46-0.44,0.76-0.31l0,0c0.29,0.12,0.44,0.46,0.31,0.76l-2.43,5.86
					c-0.12,0.3-0.46,0.44-0.76,0.31l0,0C180.72,215.16,180.57,214.82,180.7,214.52z"/>
				<path class="st9" d="M184.27,216.01l2.43-5.86c0.12-0.29,0.46-0.44,0.76-0.31l0,0c0.3,0.12,0.44,0.46,0.31,0.76l-2.43,5.86
					c-0.12,0.3-0.46,0.44-0.76,0.31l0,0C184.29,216.64,184.15,216.3,184.27,216.01z"/>
				<path class="st9" d="M188.2,217.63l2.43-5.86c0.12-0.3,0.46-0.44,0.76-0.31l0,0c0.29,0.12,0.44,0.46,0.31,0.76l-2.43,5.86
					c-0.12,0.3-0.46,0.44-0.76,0.31l0,0C188.22,218.27,188.08,217.93,188.2,217.63z"/>
			</g>
			<path class="st7" d="M205.63,151.87c-1.01-3.47-6.05-9.36-10.52-21.43c-4.65-12.55-24.48-13.9-24.48-13.9l-7.7,4.12l-7.7-4.12
				c0,0-19.83,1.35-24.48,13.9c-4.48,12.07-9.51,17.95-10.52,21.43c-1.01,3.47,4.45,25.96,20.13,29.15h21.97h1.2h21.97
				C201.18,177.83,206.65,155.35,205.63,151.87z"/>
			<g>
				<g id="XMLID_32_">
					<path class="st10" d="M171.49,116.63v6.17c0,0-1.42,6.89-8.13,8.03c-6.99-1.56-8.07-8.03-8.07-8.03v-6.17H171.49z"/>
				</g>
				<g>
					<path id="XMLID_31_" class="st5" d="M147.97,104.51c0,0-2.29-14.41,3.19-16.17c1.49-0.48,0.4-5.24,8.75-5.3
						c11.4-0.08,20.37-1.61,18.88,21.66L147.97,104.51z"/>
					<path class="st11" d="M155.2,106.11c0-2.17-1.76-3.94-3.94-3.94c-2.17,0-3.94,1.76-3.94,3.94c0,2.17,1.76,3.94,3.94,3.94
						C153.43,110.04,155.2,108.28,155.2,106.11z"/>
					<path class="st11" d="M179.18,106.11c0-2.17-1.76-3.94-3.94-3.94c-2.17,0-3.94,1.76-3.94,3.94c0,2.17,1.76,3.94,3.94,3.94
						C177.42,110.04,179.18,108.28,179.18,106.11z"/>
					<path class="st11" d="M176.48,99.44l-0.02-0.01v0c0,0-0.01,0-0.01,0c-0.16-0.05-3.3-1.1-3.9-5.23l-1.72,0.48
						c-4.77,1.33-9.84,1.28-14.58-0.14l-1.37-0.35c-0.6,4.12-3.9,5.17-4.08,5.23c0,0-0.03,0-0.03,0l-0.11,6.38
						c0,3.71,1.57,8.22,4.08,11.7c2.04,2.82,5.35,4.46,8.83,4.46s6.79-1.64,8.83-4.46c2.51-3.47,4.08-7.98,4.08-11.7l-0.01-6.35
						L176.48,99.44z"/>
				</g>
			</g>
			<path class="st4" d="M185.39,152.25h-44.11c-1.58,0-2.87,1.28-2.87,2.87v27.5c0,1.58,1.28,2.87,2.87,2.87h44.11
				c1.58,0,2.87-1.28,2.87-2.87v-27.5C188.26,153.54,186.97,152.25,185.39,152.25z"/>
			<circle class="st1" cx="163.18" cy="168.53" r="5.17"/>
			<path class="st5" d="M142.77,200.74c0,0,65.78-36.16,73.54-24.31c11.21,17.12-5.92,25.74-67,42.08L142.77,200.74z"/>
			<g>
				<path class="st6" d="M124.64,218.8L124.64,218.8c-1.63-3.93,0.24-8.44,4.17-10.07l15.19-6.29l5.9,14.24l-15.19,6.29
					C130.77,224.61,126.27,222.74,124.64,218.8z"/>
				<path class="st7" d="M148.95,214.39l-11.49,4.76c-2.66,1.1-5.73-0.17-6.83-2.83c-1.1-2.66,0.17-5.72,2.84-6.82l11.49-4.76
					L148.95,214.39z"/>
				<path class="st8" d="M148.9,214.29l-15.19,6.29c-3.52,1.46-7.49,0.1-9.45-3.02c0.1,0.42,0.21,0.84,0.38,1.25
					c1.63,3.93,6.14,5.8,10.07,4.17l15.19-6.29L148.9,214.29z"/>
				<path class="st9" d="M143.87,214.52l-2.43-5.86c-0.12-0.29-0.46-0.44-0.76-0.31l0,0c-0.3,0.12-0.44,0.46-0.31,0.76l2.43,5.86
					c0.12,0.3,0.46,0.44,0.76,0.31l0,0C143.85,215.16,144,214.82,143.87,214.52z"/>
				<path class="st9" d="M140.3,216.01l-2.43-5.86c-0.12-0.29-0.46-0.44-0.76-0.31l0,0c-0.3,0.12-0.44,0.46-0.31,0.76l2.43,5.86
					c0.12,0.3,0.46,0.44,0.76,0.31l0,0C140.28,216.64,140.42,216.3,140.3,216.01z"/>
				<path class="st9" d="M136.37,217.63l-2.43-5.86c-0.12-0.3-0.46-0.44-0.76-0.31l0,0c-0.3,0.12-0.44,0.46-0.31,0.76l2.43,5.86
					c0.12,0.3,0.46,0.44,0.76,0.31l0,0C136.35,218.27,136.49,217.93,136.37,217.63z"/>
			</g>
		</g>
		<g>
			<g>
				<g>
					<path class="st5" d="M42.4,174.44c0,0-17.42-27.82-12.03-31.85c5.39-4.03,10.68,12.35,13.44,9.72
						c2.76-2.63-9.61-26.02-3.77-31.05c5.84-5.03,5.41,12.05,10.37,15.23c4.96,3.17-2.69-23.28,3.25-27.41
						c5.94-4.13,8.8,9.03,8.8,9.03s6.58-26.19,15.43-21.06c8.85,5.14-13.57,31.51-8.31,30.61c5.27-0.9,10.67-9.81,15.24-3.81
						c4.57,6-25.34,21.27-20.55,20.88c4.8-0.39,13.29-6.34,14.77-1.04c1.47,5.3-24.27,14.86-21.6,16.7
						c2.67,1.83,16.13-8.56,18.25-0.91C77.8,167.11,47.75,179.3,42.4,174.44z"/>
					<path class="st4" d="M40.29,185.3c3.25-5.42,5.96-11.3,8.06-17.49c1.1-3.25,2.04-6.61,2.96-9.86c0.42-1.48,0.83-2.96,1.26-4.43
						c4.8-16.46,11.59-32.33,20.17-47.18l0.34,0.2c-8.56,14.82-15.33,30.66-20.13,47.09c-0.43,1.47-0.84,2.95-1.26,4.43
						c-0.91,3.25-1.86,6.62-2.96,9.88c-2.11,6.21-4.83,12.12-8.1,17.57L40.29,185.3z"/>
					<path class="st4" d="M59.3,133.82c-0.03-0.02-0.06-0.06-0.08-0.1c-1.96-5.99-3.29-12.2-3.94-18.46
						c-0.01-0.11,0.07-0.2,0.18-0.22c0.11-0.01,0.2,0.07,0.22,0.18c0.65,6.24,1.97,12.42,3.92,18.38c0.03,0.1-0.02,0.21-0.13,0.25
						C59.41,133.86,59.35,133.85,59.3,133.82z"/>
					<path class="st4" d="M56.85,141.05c-0.02-0.01-0.03-0.03-0.05-0.05c-0.06-0.09-0.04-0.21,0.04-0.27
						c5.4-3.95,10.99-8.03,16.98-11.29c1.1-0.6,2.28-1.21,3.57-1.52c0.11-0.02,0.21,0.04,0.24,0.14c0.03,0.1-0.04,0.21-0.14,0.24
						c-1.24,0.3-2.39,0.9-3.47,1.48c-5.97,3.25-11.54,7.32-16.93,11.26C57.01,141.09,56.92,141.09,56.85,141.05z"/>
					<path class="st4" d="M52.95,152.9c-0.02-0.01-0.04-0.03-0.05-0.05c-2.28-3.43-5.16-8-7.24-12.96
						c-1.42-3.38-2.47-6.95-3.49-10.41c-0.03-0.1,0.03-0.21,0.13-0.24c0.1-0.03,0.21,0.03,0.24,0.13c1.01,3.44,2.06,7.01,3.47,10.37
						c2.06,4.93,4.93,9.48,7.2,12.9c0.06,0.09,0.04,0.21-0.05,0.27C53.1,152.95,53.01,152.95,52.95,152.9z"/>
					<path class="st4" d="M52.89,153.08c-0.07-0.05-0.1-0.14-0.07-0.23c0.04-0.1,0.15-0.15,0.25-0.12c0.55,0.2,1.17,0.12,1.76,0.01
						c1.59-0.31,3.15-0.88,4.65-1.44c0.28-0.1,0.56-0.21,0.84-0.31c4.45-1.63,9.1-2.87,13.59-4.06c0.1-0.03,0.21,0.04,0.24,0.14
						c0.03,0.1-0.03,0.21-0.14,0.24c-4.49,1.2-9.12,2.43-13.56,4.05c-0.28,0.1-0.56,0.21-0.84,0.31c-1.52,0.57-3.09,1.15-4.72,1.46
						c-0.61,0.12-1.32,0.21-1.97-0.03C52.92,153.1,52.9,153.09,52.89,153.08z"/>
					<path class="st4" d="M48.12,168.72c-5.21-3.58-11.18-13.23-14.71-20.41c-0.05-0.1-0.01-0.21,0.09-0.26
						c0.1-0.05,0.21-0.01,0.26,0.09c3.51,7.13,9.43,16.72,14.58,20.26c0.09,0.06,0.11,0.18,0.05,0.27
						C48.33,168.76,48.21,168.78,48.12,168.72z"/>
					<path class="st4" d="M48.45,168.87c-0.05-0.03-0.09-0.07-0.14-0.1c-0.08-0.07-0.1-0.19-0.03-0.28c0.07-0.08,0.2-0.09,0.28-0.03
						c0.74,0.6,1.84,0.41,2.93,0.11l19.01-5.21c0.11-0.03,0.21,0.03,0.24,0.14c0.03,0.11-0.03,0.21-0.14,0.24l-19.01,5.21
						C50.47,169.26,49.31,169.46,48.45,168.87z"/>
				</g>
				<g>
					<path class="st7" d="M40.09,173.93c0,0-30.16-13.07-28-19.45c2.16-6.39,15.82,4.13,16.6,0.39c0.79-3.73-22.7-16.01-20.73-23.48
						s11.3,6.88,17.19,6.68c5.89-0.2-15.42-17.68-12.87-24.46c2.55-6.78,12.38,2.46,12.38,2.46s-9.43-25.35,0.79-26.13
						c10.22-0.79,6.68,33.7,10.51,29.97s3.24-14.15,10.41-11.79c7.17,2.36-8.84,31.93-5.11,28.88c3.73-3.05,7.37-12.77,11.59-9.24
						c4.22,3.54-11.59,26.04-8.35,26.04c3.24,0,8.45-16.21,14.54-11.1C65.14,147.79,47.26,174.91,40.09,173.93z"/>
					<path class="st4" d="M44.51,184.09c-0.4-6.31-1.5-12.71-3.27-19c-0.93-3.3-2.06-6.61-3.15-9.81c-0.5-1.46-0.99-2.91-1.48-4.37
						c-5.37-16.3-8.78-33.25-10.13-50.37l0.39-0.03c1.35,17.08,4.75,34,10.11,50.27c0.48,1.46,0.98,2.92,1.47,4.37
						c1.09,3.2,2.22,6.51,3.16,9.83c1.78,6.32,2.89,12.75,3.29,19.09L44.51,184.09z"/>
					<path class="st4" d="M30.98,130.83c-0.04,0-0.08-0.01-0.12-0.04c-5.01-3.83-9.63-8.2-13.73-13c-0.07-0.08-0.06-0.21,0.02-0.28
						c0.08-0.07,0.21-0.06,0.28,0.02c4.07,4.78,8.67,9.13,13.66,12.94c0.09,0.07,0.1,0.19,0.04,0.28
						C31.1,130.8,31.04,130.83,30.98,130.83z"/>
					<path class="st4" d="M33.06,138.18c-0.02,0-0.04,0-0.07-0.01c-0.1-0.04-0.16-0.15-0.12-0.25c2.22-6.32,4.51-12.86,7.6-18.94
						c0.57-1.12,1.19-2.29,2.08-3.28c0.07-0.08,0.2-0.09,0.28-0.01c0.08,0.07,0.09,0.2,0.01,0.28c-0.85,0.95-1.47,2.1-2.02,3.19
						c-3.08,6.06-5.37,12.59-7.58,18.9C33.22,138.13,33.14,138.18,33.06,138.18z"/>
					<path class="st4" d="M36.57,150.18c-0.02,0-0.05,0-0.07-0.01c-3.83-1.54-8.8-3.67-13.33-6.59c-3.09-1.99-5.98-4.34-8.78-6.61
						c-0.08-0.07-0.1-0.19-0.03-0.28c0.07-0.08,0.19-0.1,0.28-0.03c2.79,2.27,5.68,4.61,8.75,6.59c4.5,2.9,9.45,5.02,13.26,6.55
						c0.1,0.04,0.15,0.16,0.11,0.26C36.72,150.13,36.65,150.18,36.57,150.18z"/>
					<path class="st4" d="M36.62,150.36c-0.09,0-0.17-0.06-0.19-0.15c-0.03-0.11,0.04-0.21,0.14-0.24c0.57-0.15,1.04-0.56,1.46-0.99
						c1.14-1.16,2.1-2.52,3.02-3.83c0.17-0.25,0.35-0.49,0.52-0.73c2.75-3.87,5.88-7.53,8.91-11.07c0.07-0.08,0.19-0.09,0.28-0.02
						c0.08,0.07,0.09,0.19,0.02,0.28c-3.02,3.53-6.15,7.19-8.89,11.04c-0.17,0.24-0.35,0.49-0.52,0.73c-0.93,1.33-1.9,2.7-3.06,3.88
						c-0.44,0.44-0.98,0.92-1.64,1.09C36.66,150.35,36.64,150.36,36.62,150.36z"/>
					<path class="st4" d="M41.56,165.97c-6.33,0-16.73-4.58-23.71-8.49c-0.09-0.05-0.13-0.17-0.08-0.27
						c0.05-0.1,0.17-0.13,0.27-0.08c6.94,3.89,17.27,8.44,23.52,8.44c0.11,0,0.2,0.09,0.2,0.2
						C41.76,165.88,41.67,165.97,41.56,165.97z"/>
					<path class="st4" d="M41.93,165.9c-0.06,0-0.11,0-0.17-0.01c-0.11-0.01-0.19-0.1-0.18-0.21c0.01-0.11,0.11-0.19,0.21-0.18
						c0.95,0.07,1.75-0.71,2.48-1.57L57,148.85c0.07-0.08,0.19-0.09,0.28-0.02c0.08,0.07,0.09,0.19,0.02,0.28l-12.73,15.08
						C43.81,165.08,42.97,165.9,41.93,165.9z"/>
				</g>
			</g>
			<g>
				<path class="st4" d="M26.74,178.58l4.82,29.81c0.68,4.23,4.33,7.33,8.61,7.33h14.67c4.28,0,7.93-3.11,8.61-7.33l4.82-29.81
					H26.74z"/>
				<path class="st12" d="M68.27,178.58h-8.18H26.74l0.67,4.13h32.02l-4.15,25.68c-0.68,4.23-4.33,7.33-8.61,7.33h8.18
					c4.28,0,7.93-3.11,8.61-7.33l4.15-25.68l0,0L68.27,178.58z"/>
				<path class="st4" d="M68.74,170H26.28c-2.39,0-4.34,1.95-4.34,4.34l0,0c0,2.39,1.95,4.34,4.34,4.34h42.46
					c2.39,0,4.34-1.95,4.34-4.34l0,0C73.08,171.96,71.12,170,68.74,170z"/>
			</g>
		</g>
		<g>
			<path class="st13" d="M232.06,45.71h-88.27c-1.66,0-3.02,1.36-3.02,3.02v23.09c0,1.66,1.36,3.02,3.02,3.02h88.27
				c1.66,0,3.02-1.36,3.02-3.02V48.73C235.08,47.07,233.72,45.71,232.06,45.71z"/>
			<g>
				<path class="st5" d="M161.76,70.46h-12.9c-0.69,0-1.26-0.56-1.26-1.26v-9.19c0-0.69,0.56-1.26,1.26-1.26h12.9
					c0.69,0,1.26,0.56,1.26,1.26v9.19C163.01,69.9,162.45,70.46,161.76,70.46z"/>
				<path class="st5" d="M160.64,57.44h-1.45v-2.3c0-2.14-1.74-3.88-3.88-3.88s-3.88,1.74-3.88,3.88v2.3h-1.45v-2.3
					c0-2.94,2.39-5.33,5.33-5.33c2.94,0,5.33,2.39,5.33,5.33V57.44z"/>
				<path class="st13" d="M156.93,63.07c0-0.9-0.73-1.63-1.63-1.63c-0.9,0-1.63,0.73-1.63,1.63c0,0.6,0.33,1.13,0.82,1.41l-0.56,3.2
					h2.73l-0.56-3.2C156.6,64.2,156.93,63.67,156.93,63.07z"/>
			</g>
			<g>
				<circle class="st5" cx="180.09" cy="61.15" r="2.67"/>
				<circle class="st5" cx="190.26" cy="61.15" r="2.67"/>
				<path class="st5" d="M203.11,61.15c0,1.47-1.19,2.67-2.67,2.67c-1.47,0-2.67-1.19-2.67-2.67s1.19-2.67,2.67-2.67
					C201.91,58.48,203.11,59.67,203.11,61.15z"/>
				<path class="st5" d="M213.29,61.15c0,1.47-1.19,2.67-2.67,2.67c-1.47,0-2.67-1.19-2.67-2.67s1.19-2.67,2.67-2.67
					C212.09,58.48,213.29,59.67,213.29,61.15z"/>
				<path class="st5" d="M223.46,61.15c0,1.47-1.19,2.67-2.67,2.67c-1.47,0-2.67-1.19-2.67-2.67s1.19-2.67,2.67-2.67
					C222.27,58.48,223.46,59.67,223.46,61.15z"/>
			</g>
		</g>
		<g>
			<path class="st7" d="M94.83,7.34v35.5c0,2.5-2.05,4.55-4.55,4.55H25.41c-2.51,0-4.56-2.05-4.56-4.55V7.34
				c0-2.5,2.05-4.55,4.56-4.55h64.88C92.78,2.79,94.83,4.84,94.83,7.34z"/>
			<rect x="20.85" y="15.22" class="st5" width="73.98" height="10.04"/>
			<g>
				<path class="st5" d="M89.1,31.1H70.69c-0.92,0-1.67,0.75-1.67,1.67l0,0c0,0.92,0.75,1.67,1.67,1.67H89.1
					c0.92,0,1.67-0.75,1.67-1.67l0,0C90.77,31.85,90.02,31.1,89.1,31.1z"/>
				<path class="st5" d="M89.1,37.64h-8.37c-0.92,0-1.67,0.75-1.67,1.67l0,0c0,0.92,0.75,1.67,1.67,1.67h8.37
					c0.92,0,1.67-0.75,1.67-1.67l0,0C90.77,38.39,90.02,37.64,89.1,37.64z"/>
			</g>
		</g>
	</g>
</g>
<g id="DESIGNED_BY_FREEPIK">
</g>
</svg>
